<svg xmlns="http://www.w3.org/2000/svg" xmlns:xlink="http://www.w3.org/1999/xlink"><defs>
<linearGradient id="paint0_linear" x1="121.133" y1="35.5435" x2="62.3004" y2="-0.288535" gradientUnits="userSpaceOnUse">
<stop stop-color="#1862FF"/>
<stop offset="0.0666667" stop-color="#1863FF"/>
<stop offset="0.133333" stop-color="#1766FF"/>
<stop offset="0.2" stop-color="#166BFF"/>
<stop offset="0.266667" stop-color="#1473FF"/>
<stop offset="0.333333" stop-color="#127CFF"/>
<stop offset="0.4" stop-color="#1087FF"/>
<stop offset="0.466667" stop-color="#0D94FF"/>
<stop offset="0.533333" stop-color="#0BA0FF"/>
<stop offset="0.6" stop-color="#08ADFF"/>
<stop offset="0.666667" stop-color="#06B8FF"/>
<stop offset="0.733333" stop-color="#04C2FF"/>
<stop offset="0.8" stop-color="#02C9FF"/>
<stop offset="0.866667" stop-color="#01CEFF"/>
<stop offset="0.933333" stop-color="#00D1FF"/>
<stop offset="1" stop-color="#00D2FF"/>
</linearGradient>
<linearGradient id="paint1_linear" x1="121.134" y1="35.5435" x2="62.3012" y2="-0.288549" gradientUnits="userSpaceOnUse">
<stop stop-color="#1862FF"/>
<stop offset="0.0666667" stop-color="#1863FF"/>
<stop offset="0.133333" stop-color="#1766FF"/>
<stop offset="0.2" stop-color="#166BFF"/>
<stop offset="0.266667" stop-color="#1473FF"/>
<stop offset="0.333333" stop-color="#127CFF"/>
<stop offset="0.4" stop-color="#1087FF"/>
<stop offset="0.466667" stop-color="#0D94FF"/>
<stop offset="0.533333" stop-color="#0BA0FF"/>
<stop offset="0.6" stop-color="#08ADFF"/>
<stop offset="0.666667" stop-color="#06B8FF"/>
<stop offset="0.733333" stop-color="#04C2FF"/>
<stop offset="0.8" stop-color="#02C9FF"/>
<stop offset="0.866667" stop-color="#01CEFF"/>
<stop offset="0.933333" stop-color="#00D1FF"/>
<stop offset="1" stop-color="#00D2FF"/>
</linearGradient>
<linearGradient id="paint2_linear" x1="121.133" y1="35.5435" x2="62.2999" y2="-0.288539" gradientUnits="userSpaceOnUse">
<stop stop-color="#1862FF"/>
<stop offset="0.0666667" stop-color="#1863FF"/>
<stop offset="0.133333" stop-color="#1766FF"/>
<stop offset="0.2" stop-color="#166BFF"/>
<stop offset="0.266667" stop-color="#1473FF"/>
<stop offset="0.333333" stop-color="#127CFF"/>
<stop offset="0.4" stop-color="#1087FF"/>
<stop offset="0.466667" stop-color="#0D94FF"/>
<stop offset="0.533333" stop-color="#0BA0FF"/>
<stop offset="0.6" stop-color="#08ADFF"/>
<stop offset="0.666667" stop-color="#06B8FF"/>
<stop offset="0.733333" stop-color="#04C2FF"/>
<stop offset="0.8" stop-color="#02C9FF"/>
<stop offset="0.866667" stop-color="#01CEFF"/>
<stop offset="0.933333" stop-color="#00D1FF"/>
<stop offset="1" stop-color="#00D2FF"/>
</linearGradient>
<linearGradient id="paint3_linear" x1="121.132" y1="35.5435" x2="62.2992" y2="-0.28857" gradientUnits="userSpaceOnUse">
<stop stop-color="#1862FF"/>
<stop offset="0.0666667" stop-color="#1863FF"/>
<stop offset="0.133333" stop-color="#1766FF"/>
<stop offset="0.2" stop-color="#166BFF"/>
<stop offset="0.266667" stop-color="#1473FF"/>
<stop offset="0.333333" stop-color="#127CFF"/>
<stop offset="0.4" stop-color="#1087FF"/>
<stop offset="0.466667" stop-color="#0D94FF"/>
<stop offset="0.533333" stop-color="#0BA0FF"/>
<stop offset="0.6" stop-color="#08ADFF"/>
<stop offset="0.666667" stop-color="#06B8FF"/>
<stop offset="0.733333" stop-color="#04C2FF"/>
<stop offset="0.8" stop-color="#02C9FF"/>
<stop offset="0.866667" stop-color="#01CEFF"/>
<stop offset="0.933333" stop-color="#00D1FF"/>
<stop offset="1" stop-color="#00D2FF"/>
</linearGradient>
<linearGradient id="paint4_linear" x1="121.132" y1="35.5435" x2="62.2998" y2="-0.288559" gradientUnits="userSpaceOnUse">
<stop stop-color="#1862FF"/>
<stop offset="0.0666667" stop-color="#1863FF"/>
<stop offset="0.133333" stop-color="#1766FF"/>
<stop offset="0.2" stop-color="#166BFF"/>
<stop offset="0.266667" stop-color="#1473FF"/>
<stop offset="0.333333" stop-color="#127CFF"/>
<stop offset="0.4" stop-color="#1087FF"/>
<stop offset="0.466667" stop-color="#0D94FF"/>
<stop offset="0.533333" stop-color="#0BA0FF"/>
<stop offset="0.6" stop-color="#08ADFF"/>
<stop offset="0.666667" stop-color="#06B8FF"/>
<stop offset="0.733333" stop-color="#04C2FF"/>
<stop offset="0.8" stop-color="#02C9FF"/>
<stop offset="0.866667" stop-color="#01CEFF"/>
<stop offset="0.933333" stop-color="#00D1FF"/>
<stop offset="1" stop-color="#00D2FF"/>
</linearGradient>
<linearGradient id="paint5_linear" x1="121.133" y1="35.5435" x2="62.3009" y2="-0.288562" gradientUnits="userSpaceOnUse">
<stop stop-color="#1862FF"/>
<stop offset="0.0666667" stop-color="#1863FF"/>
<stop offset="0.133333" stop-color="#1766FF"/>
<stop offset="0.2" stop-color="#166BFF"/>
<stop offset="0.266667" stop-color="#1473FF"/>
<stop offset="0.333333" stop-color="#127CFF"/>
<stop offset="0.4" stop-color="#1087FF"/>
<stop offset="0.466667" stop-color="#0D94FF"/>
<stop offset="0.533333" stop-color="#0BA0FF"/>
<stop offset="0.6" stop-color="#08ADFF"/>
<stop offset="0.666667" stop-color="#06B8FF"/>
<stop offset="0.733333" stop-color="#04C2FF"/>
<stop offset="0.8" stop-color="#02C9FF"/>
<stop offset="0.866667" stop-color="#01CEFF"/>
<stop offset="0.933333" stop-color="#00D1FF"/>
<stop offset="1" stop-color="#00D2FF"/>
</linearGradient>
<linearGradient id="paint6_linear" x1="121.133" y1="35.5435" x2="62.3003" y2="-0.288541" gradientUnits="userSpaceOnUse">
<stop stop-color="#1862FF"/>
<stop offset="0.0666667" stop-color="#1863FF"/>
<stop offset="0.133333" stop-color="#1766FF"/>
<stop offset="0.2" stop-color="#166BFF"/>
<stop offset="0.266667" stop-color="#1473FF"/>
<stop offset="0.333333" stop-color="#127CFF"/>
<stop offset="0.4" stop-color="#1087FF"/>
<stop offset="0.466667" stop-color="#0D94FF"/>
<stop offset="0.533333" stop-color="#0BA0FF"/>
<stop offset="0.6" stop-color="#08ADFF"/>
<stop offset="0.666667" stop-color="#06B8FF"/>
<stop offset="0.733333" stop-color="#04C2FF"/>
<stop offset="0.8" stop-color="#02C9FF"/>
<stop offset="0.866667" stop-color="#01CEFF"/>
<stop offset="0.933333" stop-color="#00D1FF"/>
<stop offset="1" stop-color="#00D2FF"/>
</linearGradient>
<linearGradient id="paint7_linear" x1="121.133" y1="35.5435" x2="62.3007" y2="-0.288541" gradientUnits="userSpaceOnUse">
<stop stop-color="#1862FF"/>
<stop offset="0.0666667" stop-color="#1863FF"/>
<stop offset="0.133333" stop-color="#1766FF"/>
<stop offset="0.2" stop-color="#166BFF"/>
<stop offset="0.266667" stop-color="#1473FF"/>
<stop offset="0.333333" stop-color="#127CFF"/>
<stop offset="0.4" stop-color="#1087FF"/>
<stop offset="0.466667" stop-color="#0D94FF"/>
<stop offset="0.533333" stop-color="#0BA0FF"/>
<stop offset="0.6" stop-color="#08ADFF"/>
<stop offset="0.666667" stop-color="#06B8FF"/>
<stop offset="0.733333" stop-color="#04C2FF"/>
<stop offset="0.8" stop-color="#02C9FF"/>
<stop offset="0.866667" stop-color="#01CEFF"/>
<stop offset="0.933333" stop-color="#00D1FF"/>
<stop offset="1" stop-color="#00D2FF"/>
</linearGradient>
<linearGradient id="paint8_linear" x1="121.133" y1="35.5435" x2="62.3002" y2="-0.288546" gradientUnits="userSpaceOnUse">
<stop stop-color="#1862FF"/>
<stop offset="0.0666667" stop-color="#1863FF"/>
<stop offset="0.133333" stop-color="#1766FF"/>
<stop offset="0.2" stop-color="#166BFF"/>
<stop offset="0.266667" stop-color="#1473FF"/>
<stop offset="0.333333" stop-color="#127CFF"/>
<stop offset="0.4" stop-color="#1087FF"/>
<stop offset="0.466667" stop-color="#0D94FF"/>
<stop offset="0.533333" stop-color="#0BA0FF"/>
<stop offset="0.6" stop-color="#08ADFF"/>
<stop offset="0.666667" stop-color="#06B8FF"/>
<stop offset="0.733333" stop-color="#04C2FF"/>
<stop offset="0.8" stop-color="#02C9FF"/>
<stop offset="0.866667" stop-color="#01CEFF"/>
<stop offset="0.933333" stop-color="#00D1FF"/>
<stop offset="1" stop-color="#00D2FF"/>
</linearGradient>
<linearGradient id="paint9_linear" x1="121.133" y1="35.5435" x2="62.3004" y2="-0.28851" gradientUnits="userSpaceOnUse">
<stop stop-color="#1862FF"/>
<stop offset="0.0666667" stop-color="#1863FF"/>
<stop offset="0.133333" stop-color="#1766FF"/>
<stop offset="0.2" stop-color="#166BFF"/>
<stop offset="0.266667" stop-color="#1473FF"/>
<stop offset="0.333333" stop-color="#127CFF"/>
<stop offset="0.4" stop-color="#1087FF"/>
<stop offset="0.466667" stop-color="#0D94FF"/>
<stop offset="0.533333" stop-color="#0BA0FF"/>
<stop offset="0.6" stop-color="#08ADFF"/>
<stop offset="0.666667" stop-color="#06B8FF"/>
<stop offset="0.733333" stop-color="#04C2FF"/>
<stop offset="0.8" stop-color="#02C9FF"/>
<stop offset="0.866667" stop-color="#01CEFF"/>
<stop offset="0.933333" stop-color="#00D1FF"/>
<stop offset="1" stop-color="#00D2FF"/>
</linearGradient>
<linearGradient id="paint10_linear" x1="15.659" y1="0.991812" x2="15.9149" y2="72.004" gradientUnits="userSpaceOnUse">
<stop stop-color="#1862FF"/>
<stop offset="0.0666667" stop-color="#1863FF"/>
<stop offset="0.133333" stop-color="#1766FF"/>
<stop offset="0.2" stop-color="#166BFF"/>
<stop offset="0.266667" stop-color="#1473FF"/>
<stop offset="0.333333" stop-color="#127CFF"/>
<stop offset="0.4" stop-color="#1087FF"/>
<stop offset="0.466667" stop-color="#0D94FF"/>
<stop offset="0.533333" stop-color="#0BA0FF"/>
<stop offset="0.6" stop-color="#08ADFF"/>
<stop offset="0.666667" stop-color="#06B8FF"/>
<stop offset="0.733333" stop-color="#04C2FF"/>
<stop offset="0.8" stop-color="#02C9FF"/>
<stop offset="0.866667" stop-color="#01CEFF"/>
<stop offset="0.933333" stop-color="#00D1FF"/>
<stop offset="1" stop-color="#00D2FF"/>
</linearGradient>
<linearGradient id="paint11_linear" x1="15.6585" y1="0.991814" x2="15.9144" y2="72.004" gradientUnits="userSpaceOnUse">
<stop stop-color="#1862FF"/>
<stop offset="0.0666667" stop-color="#1863FF"/>
<stop offset="0.133333" stop-color="#1766FF"/>
<stop offset="0.2" stop-color="#166BFF"/>
<stop offset="0.266667" stop-color="#1473FF"/>
<stop offset="0.333333" stop-color="#127CFF"/>
<stop offset="0.4" stop-color="#1087FF"/>
<stop offset="0.466667" stop-color="#0D94FF"/>
<stop offset="0.533333" stop-color="#0BA0FF"/>
<stop offset="0.6" stop-color="#08ADFF"/>
<stop offset="0.666667" stop-color="#06B8FF"/>
<stop offset="0.733333" stop-color="#04C2FF"/>
<stop offset="0.8" stop-color="#02C9FF"/>
<stop offset="0.866667" stop-color="#01CEFF"/>
<stop offset="0.933333" stop-color="#00D1FF"/>
<stop offset="1" stop-color="#00D2FF"/>
</linearGradient>
<linearGradient id="paint12_linear" x1="15.6596" y1="0.991757" x2="15.9155" y2="72.004" gradientUnits="userSpaceOnUse">
<stop stop-color="#1862FF"/>
<stop offset="0.0666667" stop-color="#1863FF"/>
<stop offset="0.133333" stop-color="#1766FF"/>
<stop offset="0.2" stop-color="#166BFF"/>
<stop offset="0.266667" stop-color="#1473FF"/>
<stop offset="0.333333" stop-color="#127CFF"/>
<stop offset="0.4" stop-color="#1087FF"/>
<stop offset="0.466667" stop-color="#0D94FF"/>
<stop offset="0.533333" stop-color="#0BA0FF"/>
<stop offset="0.6" stop-color="#08ADFF"/>
<stop offset="0.666667" stop-color="#06B8FF"/>
<stop offset="0.733333" stop-color="#04C2FF"/>
<stop offset="0.8" stop-color="#02C9FF"/>
<stop offset="0.866667" stop-color="#01CEFF"/>
<stop offset="0.933333" stop-color="#00D1FF"/>
<stop offset="1" stop-color="#00D2FF"/>
</linearGradient>
<linearGradient id="paint13_linear" x1="15.658" y1="0.99179" x2="15.9139" y2="72.004" gradientUnits="userSpaceOnUse">
<stop stop-color="#1862FF"/>
<stop offset="0.0666667" stop-color="#1863FF"/>
<stop offset="0.133333" stop-color="#1766FF"/>
<stop offset="0.2" stop-color="#166BFF"/>
<stop offset="0.266667" stop-color="#1473FF"/>
<stop offset="0.333333" stop-color="#127CFF"/>
<stop offset="0.4" stop-color="#1087FF"/>
<stop offset="0.466667" stop-color="#0D94FF"/>
<stop offset="0.533333" stop-color="#0BA0FF"/>
<stop offset="0.6" stop-color="#08ADFF"/>
<stop offset="0.666667" stop-color="#06B8FF"/>
<stop offset="0.733333" stop-color="#04C2FF"/>
<stop offset="0.8" stop-color="#02C9FF"/>
<stop offset="0.866667" stop-color="#01CEFF"/>
<stop offset="0.933333" stop-color="#00D1FF"/>
<stop offset="1" stop-color="#00D2FF"/>
</linearGradient>
<linearGradient id="paint14_linear" x1="15.6586" y1="0.99248" x2="15.9144" y2="71.9856" gradientUnits="userSpaceOnUse">
<stop stop-color="#1862FF"/>
<stop offset="0.0666667" stop-color="#1863FF"/>
<stop offset="0.133333" stop-color="#1766FF"/>
<stop offset="0.2" stop-color="#166BFF"/>
<stop offset="0.266667" stop-color="#1473FF"/>
<stop offset="0.333333" stop-color="#127CFF"/>
<stop offset="0.4" stop-color="#1087FF"/>
<stop offset="0.466667" stop-color="#0D94FF"/>
<stop offset="0.533333" stop-color="#0BA0FF"/>
<stop offset="0.6" stop-color="#08ADFF"/>
<stop offset="0.666667" stop-color="#06B8FF"/>
<stop offset="0.733333" stop-color="#04C2FF"/>
<stop offset="0.8" stop-color="#02C9FF"/>
<stop offset="0.866667" stop-color="#01CEFF"/>
<stop offset="0.933333" stop-color="#00D1FF"/>
<stop offset="1" stop-color="#00D2FF"/>
</linearGradient>
<linearGradient id="paint15_linear" x1="15.6583" y1="0.991779" x2="15.9143" y2="72.004" gradientUnits="userSpaceOnUse">
<stop stop-color="#1862FF"/>
<stop offset="0.0666667" stop-color="#1863FF"/>
<stop offset="0.133333" stop-color="#1766FF"/>
<stop offset="0.2" stop-color="#166BFF"/>
<stop offset="0.266667" stop-color="#1473FF"/>
<stop offset="0.333333" stop-color="#127CFF"/>
<stop offset="0.4" stop-color="#1087FF"/>
<stop offset="0.466667" stop-color="#0D94FF"/>
<stop offset="0.533333" stop-color="#0BA0FF"/>
<stop offset="0.6" stop-color="#08ADFF"/>
<stop offset="0.666667" stop-color="#06B8FF"/>
<stop offset="0.733333" stop-color="#04C2FF"/>
<stop offset="0.8" stop-color="#02C9FF"/>
<stop offset="0.866667" stop-color="#01CEFF"/>
<stop offset="0.933333" stop-color="#00D1FF"/>
<stop offset="1" stop-color="#00D2FF"/>
</linearGradient>
<linearGradient id="paint16_linear" x1="15.6591" y1="0.991416" x2="15.9151" y2="72.0036" gradientUnits="userSpaceOnUse">
<stop stop-color="#1862FF"/>
<stop offset="0.0666667" stop-color="#1863FF"/>
<stop offset="0.133333" stop-color="#1766FF"/>
<stop offset="0.2" stop-color="#166BFF"/>
<stop offset="0.266667" stop-color="#1473FF"/>
<stop offset="0.333333" stop-color="#127CFF"/>
<stop offset="0.4" stop-color="#1087FF"/>
<stop offset="0.466667" stop-color="#0D94FF"/>
<stop offset="0.533333" stop-color="#0BA0FF"/>
<stop offset="0.6" stop-color="#08ADFF"/>
<stop offset="0.666667" stop-color="#06B8FF"/>
<stop offset="0.733333" stop-color="#04C2FF"/>
<stop offset="0.8" stop-color="#02C9FF"/>
<stop offset="0.866667" stop-color="#01CEFF"/>
<stop offset="0.933333" stop-color="#00D1FF"/>
<stop offset="1" stop-color="#00D2FF"/>
</linearGradient>
<linearGradient id="paint17_linear" x1="15.6602" y1="0.991717" x2="15.9161" y2="72.0039" gradientUnits="userSpaceOnUse">
<stop stop-color="#1862FF"/>
<stop offset="0.0666667" stop-color="#1863FF"/>
<stop offset="0.133333" stop-color="#1766FF"/>
<stop offset="0.2" stop-color="#166BFF"/>
<stop offset="0.266667" stop-color="#1473FF"/>
<stop offset="0.333333" stop-color="#127CFF"/>
<stop offset="0.4" stop-color="#1087FF"/>
<stop offset="0.466667" stop-color="#0D94FF"/>
<stop offset="0.533333" stop-color="#0BA0FF"/>
<stop offset="0.6" stop-color="#08ADFF"/>
<stop offset="0.666667" stop-color="#06B8FF"/>
<stop offset="0.733333" stop-color="#04C2FF"/>
<stop offset="0.8" stop-color="#02C9FF"/>
<stop offset="0.866667" stop-color="#01CEFF"/>
<stop offset="0.933333" stop-color="#00D1FF"/>
<stop offset="1" stop-color="#00D2FF"/>
</linearGradient>
<linearGradient id="paint18_linear" x1="15.6595" y1="0.991804" x2="15.9154" y2="72.004" gradientUnits="userSpaceOnUse">
<stop stop-color="#1862FF"/>
<stop offset="0.0666667" stop-color="#1863FF"/>
<stop offset="0.133333" stop-color="#1766FF"/>
<stop offset="0.2" stop-color="#166BFF"/>
<stop offset="0.266667" stop-color="#1473FF"/>
<stop offset="0.333333" stop-color="#127CFF"/>
<stop offset="0.4" stop-color="#1087FF"/>
<stop offset="0.466667" stop-color="#0D94FF"/>
<stop offset="0.533333" stop-color="#0BA0FF"/>
<stop offset="0.6" stop-color="#08ADFF"/>
<stop offset="0.666667" stop-color="#06B8FF"/>
<stop offset="0.733333" stop-color="#04C2FF"/>
<stop offset="0.8" stop-color="#02C9FF"/>
<stop offset="0.866667" stop-color="#01CEFF"/>
<stop offset="0.933333" stop-color="#00D1FF"/>
<stop offset="1" stop-color="#00D2FF"/>
</linearGradient>
<linearGradient id="paint19_linear" x1="15.6595" y1="0.991751" x2="15.9154" y2="72.004" gradientUnits="userSpaceOnUse">
<stop stop-color="#1862FF"/>
<stop offset="0.0666667" stop-color="#1863FF"/>
<stop offset="0.133333" stop-color="#1766FF"/>
<stop offset="0.2" stop-color="#166BFF"/>
<stop offset="0.266667" stop-color="#1473FF"/>
<stop offset="0.333333" stop-color="#127CFF"/>
<stop offset="0.4" stop-color="#1087FF"/>
<stop offset="0.466667" stop-color="#0D94FF"/>
<stop offset="0.533333" stop-color="#0BA0FF"/>
<stop offset="0.6" stop-color="#08ADFF"/>
<stop offset="0.666667" stop-color="#06B8FF"/>
<stop offset="0.733333" stop-color="#04C2FF"/>
<stop offset="0.8" stop-color="#02C9FF"/>
<stop offset="0.866667" stop-color="#01CEFF"/>
<stop offset="0.933333" stop-color="#00D1FF"/>
<stop offset="1" stop-color="#00D2FF"/>
</linearGradient>
</defs><symbol id="icon-insta" viewBox="0 0 12 12">
<path fill-rule="evenodd" clip-rule="evenodd" d="M11.6847 8.29736C11.5921 10.3224 10.4496 11.445 8.40145 11.5381C7.79926 11.565 7.60661 11.5714 6.07343 11.5714C4.54025 11.5714 4.34813 11.565 3.74541 11.5381C1.69345 11.445 0.555275 10.3208 0.461638 8.29736C0.434192 7.70325 0.427734 7.51329 0.427734 6.00002C0.427734 4.48675 0.434192 4.29732 0.462176 3.70267C0.556351 1.67763 1.69561 0.555053 3.74594 0.461954C4.34813 0.435047 4.54025 0.428589 6.07343 0.428589C7.60661 0.428589 7.79926 0.435047 8.40199 0.462492C10.4539 0.555591 11.5932 1.68193 11.6852 3.70321C11.7127 4.29732 11.7191 4.48675 11.7191 6.00002C11.7191 7.51329 11.7127 7.70325 11.6847 8.29736ZM6.07343 3.13923C4.47244 3.13923 3.17443 4.42002 3.17443 6.00002C3.17443 7.58002 4.47244 8.86134 6.07343 8.86134C7.67441 8.86134 8.97242 7.58055 8.97242 6.00002C8.97242 4.42002 7.67441 3.13923 6.07343 3.13923ZM9.08705 2.35731C8.71303 2.35731 8.40898 2.65705 8.40898 3.02622C8.40898 3.39539 8.71303 3.6946 9.08705 3.6946C9.4616 3.6946 9.76457 3.39539 9.76457 3.02622C9.76457 2.65705 9.4616 2.35731 9.08705 2.35731ZM6.07343 7.85716C5.03427 7.85716 4.19153 7.02626 4.19153 6.00002C4.19153 4.97431 5.03427 4.14287 6.07343 4.14287C7.11259 4.14287 7.95533 4.97431 7.95533 6.00002C7.95533 7.02626 7.11259 7.85716 6.07343 7.85716Z"/>
</symbol><symbol id="icon-logo" viewBox="0 0 180 72">
<path d="M57.7125 32.1456C57.6586 32.1456 57.6111 32.1812 57.596 32.233L55.6339 38.9455C55.6001 39.0613 55.4366 39.0623 55.4013 38.947L53.3436 32.2315C53.3279 32.1805 53.2808 32.1456 53.2274 32.1456H48.9144C48.861 32.1456 48.8139 32.1805 48.7983 32.2315L46.7406 38.947C46.7053 39.0623 46.5417 39.0613 46.5079 38.9455L44.5459 32.233C44.5307 32.1812 44.4832 32.1456 44.4293 32.1456H40.6445C40.5619 32.1456 40.5034 32.2264 40.5291 32.3049L43.7828 42.2493C43.7992 42.2992 43.8457 42.333 43.8983 42.333H49.3125C49.3669 42.333 49.4145 42.2969 49.4294 42.2447L50.9541 36.8791C50.9876 36.7614 51.1543 36.7614 51.1878 36.8791L52.7125 42.2447C52.7273 42.2969 52.775 42.333 52.8293 42.333H58.2436C58.2961 42.333 58.3427 42.2992 58.359 42.2493L61.6128 32.3049C61.6385 32.2264 61.58 32.1456 61.4974 32.1456H57.7125Z" fill="url(#paint0_linear)"/>
<path d="M66.6464 32.2671C66.6464 32.2 66.592 32.1456 66.5245 32.1456H62.9996C62.9326 32.1456 62.8782 32.2 62.8782 32.2671V42.2115C62.8782 42.2786 62.9326 42.333 62.9996 42.333H66.5245C66.592 42.333 66.6464 42.2786 66.6464 42.2115V32.2671Z" fill="url(#paint1_linear)"/>
<path d="M68.1343 38.7383C68.0674 38.7383 68.013 38.7943 68.0143 38.8614C68.0768 41.7848 70.389 42.4785 74.4911 42.4785C78.6507 42.4785 80.9692 41.7654 80.9692 38.9566C80.9692 36.2933 78.4909 36.0168 74.4911 35.8567C72.2882 35.7694 71.9257 35.784 71.9257 35.391C71.9257 34.9981 72.2882 34.9108 74.0566 34.9108C75.7511 34.9108 76.6227 35.0095 76.7503 35.4455C76.7686 35.5099 76.821 35.5656 76.888 35.5656H80.4128C80.4798 35.5656 80.5347 35.5101 80.5328 35.443C80.4633 32.9304 78.2402 32.0001 74.3459 32.0001C70.3461 32.0001 68.1577 32.9606 68.1577 35.2018C68.1577 37.574 69.9116 38.3308 74.4911 38.4763C76.8678 38.5491 77.2012 38.6073 77.2012 39.0439C77.2012 39.4223 76.8678 39.5678 74.6358 39.5678C72.4455 39.5678 71.872 39.2868 71.7918 38.8592C71.7791 38.7932 71.7267 38.7383 71.6598 38.7383H68.1343Z" fill="url(#paint2_linear)"/>
<path d="M92.1715 32.1456C92.1045 32.1456 92.0502 32.2 92.0502 32.2671V35.5169C92.0502 35.584 91.9959 35.6384 91.929 35.6384H86.2296C86.1626 35.6384 86.1083 35.584 86.1083 35.5169V32.2671C86.1083 32.2 86.054 32.1456 85.9871 32.1456H82.4616C82.3946 32.1456 82.3403 32.2 82.3403 32.2671V42.2115C82.3403 42.2786 82.3946 42.333 82.4616 42.333H85.9871C86.054 42.333 86.1083 42.2786 86.1083 42.2115V38.9617C86.1083 38.8946 86.1626 38.8402 86.2296 38.8402H91.929C91.9959 38.8402 92.0502 38.8946 92.0502 38.9617V42.2115C92.0502 42.2786 92.1045 42.333 92.1715 42.333H95.6969C95.7639 42.333 95.8182 42.2786 95.8182 42.2115V32.2671C95.8182 32.2 95.7639 32.1456 95.6969 32.1456H92.1715Z" fill="url(#paint3_linear)"/>
<path d="M113.043 32.2671C113.043 32.2 112.988 32.1456 112.921 32.1456H108.477C108.433 32.1456 108.392 32.1702 108.371 32.2096L105.381 37.7681C105.336 37.8533 105.213 37.8533 105.167 37.7681L102.179 32.2096C102.157 32.1702 102.116 32.1456 102.071 32.1456H97.6282C97.5613 32.1456 97.507 32.2 97.507 32.2671V42.2115C97.507 42.2786 97.5613 42.333 97.6282 42.333H101.153C101.221 42.333 101.275 42.2786 101.275 42.2115V37.9442C101.275 37.8197 101.44 37.7758 101.502 37.884L104.008 42.2718C104.029 42.3096 104.07 42.333 104.113 42.333H106.436C106.48 42.333 106.52 42.3096 106.542 42.2718L109.048 37.884C109.11 37.7758 109.275 37.8197 109.275 37.9442V42.2115C109.275 42.2786 109.329 42.333 109.396 42.333H112.921C112.988 42.333 113.043 42.2786 113.043 42.2115V32.2671Z" fill="url(#paint4_linear)"/>
<path d="M123.938 42.2546C123.956 42.3018 124.001 42.333 124.051 42.333H127.931C128.018 42.333 128.076 42.2451 128.044 42.1651L123.941 32.2207C123.922 32.1753 123.878 32.1456 123.828 32.1456H118.397C118.348 32.1456 118.303 32.1753 118.284 32.2207L114.182 42.1651C114.149 42.2451 114.208 42.333 114.295 42.333H118.174C118.224 42.333 118.27 42.3018 118.288 42.2546L118.924 40.5776C118.941 40.5304 118.987 40.4992 119.037 40.4992H123.189C123.239 40.4992 123.284 40.5304 123.302 40.5776L123.938 42.2546ZM120.115 37.8796C120.029 37.8796 119.971 37.7948 120.001 37.7153L120.999 35.0668C121.039 34.9619 121.187 34.9619 121.226 35.0668L122.225 37.7153C122.255 37.7948 122.196 37.8796 122.111 37.8796H120.115Z" fill="url(#paint5_linear)"/>
<path d="M128.445 38.7383C128.378 38.7383 128.323 38.7943 128.325 38.8614C128.388 41.7847 130.699 42.4785 134.802 42.4785C138.961 42.4785 141.28 41.7654 141.28 38.9566C141.28 36.2933 138.802 36.0168 134.802 35.8567C132.599 35.7694 132.237 35.784 132.237 35.391C132.237 34.9981 132.599 34.9108 134.367 34.9108C136.062 34.9108 136.934 35.0095 137.061 35.4455C137.08 35.5099 137.131 35.5656 137.199 35.5656H140.724C140.791 35.5656 140.846 35.5101 140.844 35.443C140.774 32.9304 138.551 32.0001 134.657 32.0001C130.657 32.0001 128.469 32.9606 128.469 35.2018C128.469 37.574 130.223 38.3308 134.802 38.4763C137.179 38.5491 137.512 38.6073 137.512 39.0439C137.512 39.4223 137.179 39.5678 134.947 39.5678C132.756 39.5678 132.183 39.2868 132.102 38.8592C132.09 38.7932 132.038 38.7383 131.97 38.7383H128.445Z" fill="url(#paint6_linear)"/>
<path d="M154.523 32.2671C154.523 32.2 154.469 32.1456 154.402 32.1456H142.181C142.114 32.1456 142.06 32.2 142.06 32.2671V35.2259C142.06 35.293 142.114 35.3474 142.181 35.3474H146.286C146.353 35.3474 146.407 35.4018 146.407 35.4689V42.2115C146.407 42.2786 146.462 42.333 146.529 42.333H150.054C150.121 42.333 150.176 42.2786 150.176 42.2115V35.4689C150.176 35.4018 150.23 35.3474 150.297 35.3474H154.402C154.469 35.3474 154.523 35.293 154.523 35.2259V32.2671Z" fill="url(#paint7_linear)"/>
<path d="M166.495 35.0563C166.562 35.0563 166.617 35.0019 166.617 34.9348V32.2671C166.617 32.2 166.562 32.1456 166.495 32.1456H156.014C155.946 32.1456 155.892 32.2 155.892 32.2671V42.2115C155.892 42.2786 155.946 42.333 156.014 42.333H166.495C166.562 42.333 166.617 42.2786 166.617 42.2115V39.5438C166.617 39.4767 166.562 39.4223 166.495 39.4223H159.782C159.715 39.4223 159.66 39.3679 159.66 39.3008V38.5979C159.66 38.5307 159.715 38.4763 159.782 38.4763H166.495C166.562 38.4763 166.617 38.4219 166.617 38.3548V36.1237C166.617 36.0567 166.562 36.0023 166.495 36.0023H159.782C159.715 36.0023 159.66 35.9479 159.66 35.8808V35.1778C159.66 35.1107 159.715 35.0563 159.782 35.0563H166.495Z" fill="url(#paint8_linear)"/>
<path d="M180 36.0459C180 33.7756 178.42 32.1456 176.116 32.1456H168.266C168.199 32.1456 168.145 32.2 168.145 32.2671V42.2115C168.145 42.2786 168.199 42.333 168.266 42.333H171.792C171.859 42.333 171.913 42.2786 171.913 42.2115V40.0677C171.913 40.0006 171.967 39.9462 172.034 39.9462H174.061C174.104 39.9462 174.144 39.969 174.166 40.006L175.501 42.2732C175.523 42.3102 175.563 42.333 175.606 42.333H179.783C179.878 42.333 179.936 42.2288 179.886 42.1479L178.268 39.5134C178.232 39.4554 178.251 39.3796 178.308 39.3431C179.362 38.6743 180 37.4829 180 36.0459ZM171.913 35.4689C171.913 35.4018 171.967 35.3474 172.034 35.3474H175.391C175.768 35.3474 176.232 35.3474 176.232 36.0459C176.232 36.7445 175.768 36.7445 175.391 36.7445H172.034C171.967 36.7445 171.913 36.6901 171.913 36.623V35.4689Z" fill="url(#paint9_linear)"/>
<path d="M4.56336 25.1548C4.56336 29.5861 11.4573 32.9426 7.05959 32.9426C5.05457 32.9426 3.95717 33.7123 2.55726 32.4798C0.886716 31.0089 -0.462187 27.9497 0.150463 25.1548C1.00004 21.279 3.13134 18.4956 9.69333 16.8382C9.72428 16.8305 9.76135 16.8263 9.79325 16.8265C14.0613 16.8578 4.56336 20.7414 4.56336 25.1548Z" fill="url(#paint10_linear)"/>
<path d="M25.2949 25.1548C25.2949 29.5861 23.6265 31.7498 23.6265 33.5819C23.6265 33.8878 25.9011 33.7123 27.301 32.4798C28.9715 31.0089 30.3204 27.9497 29.7078 25.1548C28.8582 21.279 26.7269 18.4956 20.165 16.8382C20.134 16.8305 20.0969 16.8263 20.065 16.8265C15.797 16.8578 25.2949 20.7414 25.2949 25.1548Z" fill="url(#paint11_linear)"/>
<path d="M8.48903 18.6004C8.46446 18.7464 8.59179 18.8721 8.73636 18.8439C9.24838 18.7443 9.78358 18.6401 10.3187 18.6401C11.6097 18.6401 12.8381 18.909 13.9516 19.3939C14.4513 19.6115 14.701 19.7203 14.8894 19.7203C15.0778 19.7203 15.3276 19.6115 15.8271 19.3939C16.9407 18.909 18.1691 18.6401 19.46 18.6401C19.8914 18.6401 20.3228 18.7372 20.742 18.8315C20.797 18.8439 20.8518 18.8562 20.9063 18.8683C21.1841 18.9297 21.4222 18.688 21.3748 18.4059C21.3361 18.1754 21.4905 17.9551 21.7222 17.9355C22.449 17.874 23.1822 17.9716 23.8709 18.2236C24.6916 18.5239 25.4208 19.0334 25.9872 19.7021C26.5536 20.3708 26.9377 21.1759 27.1021 22.0387C27.1304 22.1871 27.152 22.3363 27.1669 22.4859C27.1887 22.7029 27.2393 22.9172 27.3366 23.1123C27.4237 23.2867 27.5223 23.4839 27.6328 23.7047C28.2525 24.9433 28.6014 26.3423 28.6014 27.823C28.6014 29.71 28.3091 31.1421 27.6828 31.9427C27.1585 32.6128 25.1843 34.6155 21.8065 33.2479C19.7735 32.4248 16.9636 29.8289 15.6364 28.5748C15.5904 28.5313 15.5921 28.4585 15.639 28.416L18.6742 25.6643C18.7013 25.6398 18.7389 25.6306 18.7741 25.6401C19.6568 25.8773 20.4478 26.1696 21.1224 26.4626C21.9011 26.8008 22.5215 27.1386 22.9455 27.3906C23.1575 27.5165 23.3201 27.6208 23.4284 27.6929C23.4827 27.7289 23.5233 27.7567 23.5498 27.7752C23.551 27.7761 23.5522 27.7769 23.5534 27.7777C23.5629 27.785 23.5728 27.792 23.5829 27.7985L23.5851 27.8001C23.5851 27.8002 23.5853 27.8002 23.5853 27.8002C23.5854 27.8002 23.5854 27.8002 23.5855 27.8003C23.6589 27.8469 23.7469 27.8718 23.8401 27.8665C24.0783 27.8531 24.2605 27.6479 24.2472 27.4084L24.105 24.8619C24.0916 24.6224 23.8877 24.4392 23.6496 24.4526C23.4114 24.466 23.2292 24.6711 23.2425 24.9106L23.2942 25.8355C23.3115 26.1456 22.9752 26.3524 22.7007 26.2074C22.3512 26.023 21.9429 25.823 21.4828 25.6231C19.8469 24.9127 17.5416 24.1979 14.8813 24.1979C12.2209 24.1979 9.91823 24.913 8.28491 25.6239C7.82133 25.8257 7.41061 26.0276 7.05964 26.2136C6.78503 26.3591 6.44802 26.1523 6.46533 25.842L6.51668 24.9223C6.53007 24.6828 6.34786 24.4777 6.10968 24.4643C5.87152 24.4508 5.66762 24.6341 5.65425 24.8736L5.51209 27.4201C5.49872 27.6596 5.68094 27.8647 5.9191 27.8781C6.02902 27.8844 6.13164 27.8486 6.21159 27.7849L6.22409 27.7761C6.25048 27.7577 6.29099 27.7297 6.34501 27.6937C6.45314 27.6217 6.61527 27.5174 6.82666 27.3914C7.24962 27.1393 7.8687 26.8014 8.64598 26.4631C10.2026 25.7856 12.3802 25.1123 14.8813 25.1123C15.7724 25.1123 16.6227 25.1977 17.4187 25.3383C17.5066 25.3538 17.5374 25.464 17.4711 25.5241L12.0656 30.4247C12.0653 30.4249 12.0652 30.4252 12.0652 30.4255V30.4258C12.0652 30.4259 12.0652 30.426 12.0652 30.426C12.0652 30.4261 12.0653 30.4262 12.0652 30.4264L12.0652 30.4266C12.0651 30.4267 12.065 30.4269 12.0648 30.4271C10.7433 31.5535 9.19356 32.7384 7.96432 33.2507C4.67781 34.6207 2.51781 32.6032 2.08274 31.9498C1.54987 31.1495 1.17737 29.71 1.17737 27.823C1.17737 26.3423 1.52624 24.9434 2.14592 23.7049C2.33237 23.3322 2.47633 23.0445 2.58183 22.836C2.6738 22.6543 2.72845 22.4564 2.75798 22.2547C2.76855 22.1825 2.78067 22.1105 2.79436 22.0386C2.95873 21.1759 3.34289 20.3708 3.90926 19.7021C4.47564 19.0334 5.20485 18.5239 6.02561 18.2236C6.7275 17.9667 7.47579 17.8703 8.21644 17.9392C8.42461 17.9586 8.56349 18.1566 8.52869 18.3639L8.48903 18.6004Z" fill="url(#paint12_linear)"/>
<path d="M11.1156 16.2592C11.3286 16.1514 11.851 15.7896 11.851 14.4471C11.851 12.7483 10.1076 11.5024 10.1076 10.5964C10.1076 10.2573 10.2959 9.91818 10.6254 9.76909C10.8212 9.68052 11.0035 9.51633 11.0035 9.30135C11.0034 8.93891 11.0033 8.40995 11.0033 8.10513C11.0033 7.42525 11.1263 6.63342 11.7132 5.9529C12.1186 5.51124 12.7851 4.71967 14.9233 4.71967C17.0614 4.71967 17.7293 5.5115 18.1341 5.95334C18.7234 6.63398 18.843 7.42525 18.8436 8.10475V9.30116C18.8436 9.51608 19.0259 9.68052 19.2217 9.76922C19.5508 9.91837 19.7389 10.2574 19.7389 10.5964C19.7389 11.5024 17.9955 12.7483 17.9955 14.4471C17.9955 15.8271 18.5048 16.1465 18.7151 16.2536C19.4629 16.6343 20.5485 16.933 21.5073 17.2122C21.561 17.2279 21.6104 17.2541 21.6507 17.2928C21.9597 17.5889 22.5183 18.2907 22.8551 18.724C23.0029 18.9141 22.9408 19.19 22.7276 19.3013L18.0561 21.7394C18.0005 21.7684 17.9387 21.7835 17.8761 21.7835H11.9744C11.9093 21.7835 11.8451 21.7671 11.7879 21.7358L6.8735 19.0504C6.61278 18.9079 6.60097 18.5369 6.8512 18.3766C7.43756 18.001 8.32322 17.4248 8.68783 17.1418C8.72888 17.1099 8.77436 17.0856 8.82413 17.0708C9.51147 16.8667 10.444 16.5987 11.1156 16.2592Z" fill="url(#paint13_linear)"/>
<path d="M13.7854 4.89626C13.769 4.87056 13.7641 4.84043 13.7764 4.81251C13.833 4.68481 14.0164 4.34205 14.0383 4.30908C14.1175 4.19009 14.349 3.9367 14.8859 3.93677C15.4224 3.93683 15.6865 4.18997 15.7659 4.30908C15.7875 4.34154 15.9521 4.6687 16.008 4.80051C16.0215 4.83247 16.0142 4.86676 15.9927 4.89399C15.9713 4.92121 15.9624 4.95601 15.9632 4.99074C15.9694 5.27559 15.741 5.51641 15.4507 5.51641H14.3193C14.0265 5.51641 13.7966 5.27123 13.8071 4.9831C13.8082 4.9526 13.8019 4.9219 13.7854 4.89626Z" fill="url(#paint14_linear)"/>
<path d="M20.7376 3.24743C20.7505 3.28047 20.7665 3.33139 20.7294 3.40038C20.0064 4.67272 18.4742 4.3655 17.9058 4.03339C17.0249 3.23158 16.1153 3.46374 15.6334 3.46374C14.7388 3.46374 14.0125 4.15171 14.0125 4.15171C13.9763 4.11558 13.9409 4.07755 13.8925 4.0205C13.5707 3.60475 13.1666 3.00907 13.2129 2.12406C13.2789 0.862903 14.3044 0 15.4504 0C18.0305 0 17.9931 2.96668 20.6146 3.17775C20.669 3.18211 20.7247 3.21445 20.7376 3.24743Z" fill="url(#paint15_linear)"/>
<path d="M17.9066 4.03303C16.7613 3.36382 16.0295 3.83674 15.5727 4.25793C15.0922 4.70103 14.6891 4.73989 14.1264 4.25793C13.7792 3.96056 13.559 3.51765 13.559 3.02299C13.559 2.12761 14.2807 1.40167 15.1709 1.40167C16.0612 1.40167 17.9666 3.112 17.9066 4.03303Z" fill="url(#paint16_linear)"/>
<path d="M2.51979 26.2723C2.50619 26.3126 2.49925 26.3547 2.49925 26.3971V31.8725C2.49925 32.0721 2.25947 32.1933 2.14023 32.0332C0.851719 30.3033 0.508759 27.5847 1.00946 24.8378C1.63836 21.3877 4.03663 18.6015 6.56949 18.026C6.93562 17.9429 7.06831 18.3653 6.75417 18.571L4.77439 19.8674C4.70158 19.9151 4.64685 19.9858 4.61895 20.0683L2.51979 26.2723Z" fill="url(#paint17_linear)"/>
<path d="M27.275 26.2663C27.2886 26.3065 27.2955 26.3486 27.2955 26.3911V31.8664C27.2955 32.066 27.5353 32.1872 27.6545 32.0271C28.9431 30.2973 29.286 27.5786 28.7853 24.8317C28.1564 21.3817 25.7581 18.5954 23.2253 18.02C22.8591 17.9368 22.7264 18.3593 23.0406 18.565L25.0204 19.8614C25.0931 19.9091 25.1479 19.9798 25.1758 20.0622L27.275 26.2663Z" fill="url(#paint18_linear)"/>
<path d="M5.57338 34.8411C5.52921 34.8424 5.4971 34.8837 5.50819 34.9268C5.65202 35.4851 6.45785 38.7927 6.58884 43.2916C6.59023 43.3376 6.63539 43.3698 6.67865 43.355L9.14572 42.5096C9.18772 42.4952 9.23162 42.5233 9.23427 42.5678C9.26875 43.1454 9.4245 46.5383 8.61924 50.5128C8.60875 50.5645 8.65795 50.6089 8.70766 50.5919L11.4689 49.6478C11.512 49.6331 11.5567 49.6616 11.5578 49.7073C11.5736 50.3517 11.6359 54.3921 10.8737 58.573C10.8643 58.6242 10.9133 58.6671 10.9625 58.6501L14.078 57.5768C14.1236 57.561 14.1706 57.5963 14.1687 57.645C14.1287 58.616 13.9108 66.3991 16.8716 71.9648C16.9053 72.028 16.9996 72.0002 16.9971 71.9281C16.6224 61.6534 20.4983 53.1349 21.0743 51.9299C21.1007 51.8746 21.0443 51.8192 20.9867 51.8393L19.1175 52.4914C19.0661 52.5094 19.016 52.4631 19.0309 52.4104C19.2563 51.6156 20.6188 47.0575 23.7991 41.1597C23.8287 41.1049 23.7763 41.0408 23.7177 41.0613L21.1442 41.9629C21.0909 41.9816 21.0396 41.9302 21.058 41.8764C22.2168 38.5007 23.8475 35.4801 24.1662 34.9023C24.1912 34.8569 24.1583 34.8019 24.1067 34.8002C24.0202 34.7973 23.9032 34.7919 23.8243 34.7819C22.9546 34.6716 22.2954 34.5307 21.5884 34.2054C19.07 32.9895 16.6881 30.7626 15.2093 29.3353L15.2091 29.3352C15.1259 29.2558 15.0466 29.18 14.9711 29.1082C14.9454 29.0838 14.9052 29.0833 14.879 29.1073C14.7364 29.2378 14.5836 29.379 14.421 29.5293C13.1305 30.722 11.2115 32.5087 8.85475 33.9005C8.41549 34.16 8.11675 34.2379 7.32836 34.5416C6.83427 34.7022 6.37789 34.8169 5.57338 34.8411Z" fill="url(#paint19_linear)"/>

</symbol><symbol id="icon-vk" viewBox="0 0 17 10">
<path d="M9.30792 9.36155C9.69204 9.36155 9.8841 9.09816 9.8841 8.76892C9.8841 7.51781 10.3322 6.85933 11.2285 7.71535C12.1888 8.70307 12.3808 9.36155 13.5332 9.36155H15.5818C16.0939 9.36155 16.286 9.16401 16.286 8.90062C16.286 8.30798 15.3897 7.32026 14.6215 6.59593C13.5332 5.54237 13.4692 5.54237 14.4294 4.29125C15.5178 2.77675 16.9902 0.801303 15.6458 0.801303H13.085C12.5729 0.801303 12.5729 1.0647 12.3808 1.52563C11.7406 3.04014 10.5243 5.08143 10.0762 4.75219C9.564 4.42295 9.82008 3.17183 9.82008 1.26224C9.82008 0.735455 9.82008 0.406215 9.11587 0.274518C8.73175 0.20867 8.34764 0.142822 7.96353 0.142822C6.55511 0.142822 5.53081 0.801303 6.10698 0.867151C7.13128 1.0647 7.00324 3.30353 6.81119 4.29125C6.42707 6.0033 4.89062 2.97429 4.25043 1.45978C4.05837 1.0647 3.99435 0.801303 3.41818 0.801303H1.36957C1.04948 0.801303 0.857422 0.932999 0.857422 1.13054C0.857422 1.52563 2.77799 5.54237 4.57052 7.58366C6.29903 9.5591 8.09156 9.36155 9.30792 9.36155Z"/>
</symbol></svg>