<svg xmlns="http://www.w3.org/2000/svg" xmlns:xlink="http://www.w3.org/1999/xlink"><symbol id="icon-insta" viewBox="0 0 12 12">
<path fill-rule="evenodd" clip-rule="evenodd" d="M11.6847 8.29736C11.5921 10.3224 10.4496 11.445 8.40145 11.5381C7.79926 11.565 7.60661 11.5714 6.07343 11.5714C4.54025 11.5714 4.34813 11.565 3.74541 11.5381C1.69345 11.445 0.555275 10.3208 0.461638 8.29736C0.434192 7.70325 0.427734 7.51329 0.427734 6.00002C0.427734 4.48675 0.434192 4.29732 0.462176 3.70267C0.556351 1.67763 1.69561 0.555053 3.74594 0.461954C4.34813 0.435047 4.54025 0.428589 6.07343 0.428589C7.60661 0.428589 7.79926 0.435047 8.40199 0.462492C10.4539 0.555591 11.5932 1.68193 11.6852 3.70321C11.7127 4.29732 11.7191 4.48675 11.7191 6.00002C11.7191 7.51329 11.7127 7.70325 11.6847 8.29736ZM6.07343 3.13923C4.47244 3.13923 3.17443 4.42002 3.17443 6.00002C3.17443 7.58002 4.47244 8.86134 6.07343 8.86134C7.67441 8.86134 8.97242 7.58055 8.97242 6.00002C8.97242 4.42002 7.67441 3.13923 6.07343 3.13923ZM9.08705 2.35731C8.71303 2.35731 8.40898 2.65705 8.40898 3.02622C8.40898 3.39539 8.71303 3.6946 9.08705 3.6946C9.4616 3.6946 9.76457 3.39539 9.76457 3.02622C9.76457 2.65705 9.4616 2.35731 9.08705 2.35731ZM6.07343 7.85716C5.03427 7.85716 4.19153 7.02626 4.19153 6.00002C4.19153 4.97431 5.03427 4.14287 6.07343 4.14287C7.11259 4.14287 7.95533 4.97431 7.95533 6.00002C7.95533 7.02626 7.11259 7.85716 6.07343 7.85716Z"/>
</symbol><symbol id="icon-vk" viewBox="0 0 17 10">
<path d="M9.30792 9.36155C9.69204 9.36155 9.8841 9.09816 9.8841 8.76892C9.8841 7.51781 10.3322 6.85933 11.2285 7.71535C12.1888 8.70307 12.3808 9.36155 13.5332 9.36155H15.5818C16.0939 9.36155 16.286 9.16401 16.286 8.90062C16.286 8.30798 15.3897 7.32026 14.6215 6.59593C13.5332 5.54237 13.4692 5.54237 14.4294 4.29125C15.5178 2.77675 16.9902 0.801303 15.6458 0.801303H13.085C12.5729 0.801303 12.5729 1.0647 12.3808 1.52563C11.7406 3.04014 10.5243 5.08143 10.0762 4.75219C9.564 4.42295 9.82008 3.17183 9.82008 1.26224C9.82008 0.735455 9.82008 0.406215 9.11587 0.274518C8.73175 0.20867 8.34764 0.142822 7.96353 0.142822C6.55511 0.142822 5.53081 0.801303 6.10698 0.867151C7.13128 1.0647 7.00324 3.30353 6.81119 4.29125C6.42707 6.0033 4.89062 2.97429 4.25043 1.45978C4.05837 1.0647 3.99435 0.801303 3.41818 0.801303H1.36957C1.04948 0.801303 0.857422 0.932999 0.857422 1.13054C0.857422 1.52563 2.77799 5.54237 4.57052 7.58366C6.29903 9.5591 8.09156 9.36155 9.30792 9.36155Z"/>
</symbol></svg>