<svg width="75" height="11" viewBox="0 0 75 11" fill="none" xmlns="http://www.w3.org/2000/svg">
<path d="M0.42 8.04C2.31467 8.18 3.808 8.25 4.9 8.25C5.04 8.25 5.15667 8.20333 5.25 8.11C5.34333 8.01667 5.39 7.9 5.39 7.76V7.27H2.38C1.74533 7.27 1.23667 7.07867 0.854 6.696C0.471333 6.31333 0.28 5.80467 0.28 5.17V4.68C0.28 4.04533 0.471333 3.53667 0.854 3.154C1.23667 2.77133 1.74533 2.58 2.38 2.58H7.14V4.4H3.22C3.08 4.4 2.96333 4.44667 2.87 4.54C2.77667 4.63333 2.73 4.75 2.73 4.89C2.73 5.03 2.77667 5.14667 2.87 5.24C2.96333 5.33333 3.08 5.38 3.22 5.38H5.74C6.37467 5.38 6.88333 5.57133 7.266 5.954C7.64867 6.33667 7.84 6.84533 7.84 7.48V8.04C7.84 8.67467 7.64867 9.18333 7.266 9.566C6.88333 9.94867 6.37467 10.14 5.74 10.14C4.088 10.14 2.31467 10.0467 0.42 9.86V8.04ZM14.0011 10C13.0958 10.0933 12.2091 10.14 11.3411 10.14C10.7064 10.14 10.1978 9.94867 9.81509 9.566C9.43243 9.18333 9.24109 8.67467 9.24109 8.04V4.47H8.40109V2.58H9.24109L9.52109 0.899999H11.6911V2.58H13.4411V4.47H11.6911V7.69C11.6911 7.83 11.7378 7.94667 11.8311 8.04C11.9244 8.13333 12.0411 8.18 12.1811 8.18H14.0011V10ZM17.7204 4.19C17.3471 4.19 17.1604 4.37667 17.1604 4.75V5.52H19.5404V4.75C19.5404 4.37667 19.3537 4.19 18.9804 4.19H17.7204ZM21.7104 9.86C19.9091 10.0467 18.2757 10.14 16.8104 10.14C16.1757 10.14 15.6671 9.94867 15.2844 9.566C14.9017 9.18333 14.7104 8.67467 14.7104 8.04V4.68C14.7104 3.98 14.9064 3.434 15.2984 3.042C15.6997 2.64067 16.2504 2.44 16.9504 2.44H19.7504C20.4504 2.44 20.9964 2.64067 21.3884 3.042C21.7897 3.434 21.9904 3.98 21.9904 4.68V7.27H17.1604V7.83C17.1604 7.97 17.2071 8.08667 17.3004 8.18C17.3937 8.27333 17.5104 8.32 17.6504 8.32C18.5744 8.32 19.9277 8.25 21.7104 8.11V9.86ZM26.1149 4.19C25.7416 4.19 25.5549 4.37667 25.5549 4.75V5.52H27.9349V4.75C27.9349 4.37667 27.7483 4.19 27.3749 4.19H26.1149ZM30.1049 9.86C28.3036 10.0467 26.6703 10.14 25.2049 10.14C24.5703 10.14 24.0616 9.94867 23.6789 9.566C23.2963 9.18333 23.1049 8.67467 23.1049 8.04V4.68C23.1049 3.98 23.3009 3.434 23.6929 3.042C24.0943 2.64067 24.6449 2.44 25.3449 2.44H28.1449C28.8449 2.44 29.3909 2.64067 29.7829 3.042C30.1843 3.434 30.3849 3.98 30.3849 4.68V7.27H25.5549V7.83C25.5549 7.97 25.6016 8.08667 25.6949 8.18C25.7883 8.27333 25.9049 8.32 26.0449 8.32C26.9689 8.32 28.3223 8.25 30.1049 8.11V9.86ZM35.4195 10C34.7941 10.0933 34.1968 10.14 33.6275 10.14C33.0675 10.14 32.5961 9.94867 32.2135 9.566C31.8308 9.18333 31.6395 8.67467 31.6395 8.04V0.199999H34.0895V7.69C34.0895 7.83 34.1361 7.94667 34.2295 8.04C34.3228 8.13333 34.4395 8.18 34.5795 8.18H35.4195V10ZM45.5645 4.82C45.5645 4.68 45.5179 4.56333 45.4245 4.47C45.3312 4.37667 45.2145 4.33 45.0745 4.33H44.7245C44.3325 4.33 43.9919 4.34867 43.7025 4.386C43.4225 4.42333 43.2032 4.45133 43.0445 4.47V8.11H45.0045C45.3779 8.11 45.5645 7.92333 45.5645 7.55V4.82ZM43.0445 2.72C43.9499 2.53333 44.7432 2.44 45.4245 2.44H45.9145C46.5492 2.44 47.0579 2.63133 47.4405 3.014C47.8232 3.39667 48.0145 3.90533 48.0145 4.54V7.76C48.0145 8.46 47.8139 9.01067 47.4125 9.412C47.0205 9.804 46.4745 10 45.7745 10H40.5945V0.199999H43.0445V2.72ZM52.2162 8.18C52.7108 8.18 53.2708 8.08667 53.8962 7.9V7.06H51.8662C51.7262 7.06 51.6095 7.10667 51.5162 7.2C51.4228 7.29333 51.3762 7.41 51.3762 7.55V7.69C51.3762 7.83 51.4228 7.94667 51.5162 8.04C51.6095 8.13333 51.7262 8.18 51.8662 8.18H52.2162ZM49.6262 2.72C51.3342 2.53333 52.8742 2.44 54.2462 2.44C54.8808 2.44 55.3895 2.63133 55.7722 3.014C56.1548 3.39667 56.3462 3.90533 56.3462 4.54V10H54.1762L54.0362 9.3C53.5975 9.58933 53.1448 9.804 52.6782 9.944C52.2208 10.0747 51.8335 10.14 51.5162 10.14H51.0262C50.3915 10.14 49.8828 9.94867 49.5002 9.566C49.1175 9.18333 48.9262 8.67467 48.9262 8.04V7.41C48.9262 6.77533 49.1175 6.26667 49.5002 5.884C49.8828 5.50133 50.3915 5.31 51.0262 5.31H53.8962V4.75C53.8962 4.61 53.8495 4.49333 53.7562 4.4C53.6628 4.30667 53.5462 4.26 53.4062 4.26C52.7995 4.26 52.1275 4.288 51.3902 4.344C50.6622 4.4 50.0742 4.442 49.6262 4.47V2.72ZM61.3823 10C60.757 10.0933 60.1597 10.14 59.5903 10.14C59.0303 10.14 58.559 9.94867 58.1763 9.566C57.7937 9.18333 57.6023 8.67467 57.6023 8.04V0.199999H60.0523V7.69C60.0523 7.83 60.099 7.94667 60.1923 8.04C60.2857 8.13333 60.4023 8.18 60.5423 8.18H61.3823V10ZM66.1402 10C65.5148 10.0933 64.9175 10.14 64.3482 10.14C63.7882 10.14 63.3168 9.94867 62.9342 9.566C62.5515 9.18333 62.3602 8.67467 62.3602 8.04V0.199999H64.8102V7.69C64.8102 7.83 64.8568 7.94667 64.9502 8.04C65.0435 8.13333 65.1602 8.18 65.3002 8.18H66.1402V10ZM66.838 8.04C68.7326 8.18 70.226 8.25 71.318 8.25C71.458 8.25 71.5746 8.20333 71.668 8.11C71.7613 8.01667 71.808 7.9 71.808 7.76V7.27H68.798C68.1633 7.27 67.6546 7.07867 67.272 6.696C66.8893 6.31333 66.698 5.80467 66.698 5.17V4.68C66.698 4.04533 66.8893 3.53667 67.272 3.154C67.6546 2.77133 68.1633 2.58 68.798 2.58H73.558V4.4H69.638C69.498 4.4 69.3813 4.44667 69.288 4.54C69.1946 4.63333 69.148 4.75 69.148 4.89C69.148 5.03 69.1946 5.14667 69.288 5.24C69.3813 5.33333 69.498 5.38 69.638 5.38H72.158C72.7926 5.38 73.3013 5.57133 73.684 5.954C74.0666 6.33667 74.258 6.84533 74.258 7.48V8.04C74.258 8.67467 74.0666 9.18333 73.684 9.566C73.3013 9.94867 72.7926 10.14 72.158 10.14C70.506 10.14 68.7326 10.0467 66.838 9.86V8.04Z" fill="#E7E7E7"/>
</svg>
