<svg width="17" height="10" viewBox="0 0 17 10" fill="none" xmlns="http://www.w3.org/2000/svg">
<path d="M9.30792 9.36155C9.69204 9.36155 9.8841 9.09816 9.8841 8.76892C9.8841 7.51781 10.3322 6.85933 11.2285 7.71535C12.1888 8.70307 12.3808 9.36155 13.5332 9.36155H15.5818C16.0939 9.36155 16.286 9.16401 16.286 8.90062C16.286 8.30798 15.3897 7.32026 14.6215 6.59593C13.5332 5.54237 13.4692 5.54237 14.4294 4.29125C15.5178 2.77675 16.9902 0.801303 15.6458 0.801303H13.085C12.5729 0.801303 12.5729 1.0647 12.3808 1.52563C11.7406 3.04014 10.5243 5.08143 10.0762 4.75219C9.564 4.42295 9.82008 3.17183 9.82008 1.26224C9.82008 0.735455 9.82008 0.406215 9.11587 0.274518C8.73175 0.20867 8.34764 0.142822 7.96353 0.142822C6.55511 0.142822 5.53081 0.801303 6.10698 0.867151C7.13128 1.0647 7.00324 3.30353 6.81119 4.29125C6.42707 6.0033 4.89062 2.97429 4.25043 1.45978C4.05837 1.0647 3.99435 0.801303 3.41818 0.801303H1.36957C1.04948 0.801303 0.857422 0.932999 0.857422 1.13054C0.857422 1.52563 2.77799 5.54237 4.57052 7.58366C6.29903 9.5591 8.09156 9.36155 9.30792 9.36155Z"/>
</svg>
