<svg width="12" height="12" viewBox="0 0 12 12" fill="none" xmlns="http://www.w3.org/2000/svg">
<path fill-rule="evenodd" clip-rule="evenodd" d="M11.6847 8.29736C11.5921 10.3224 10.4496 11.445 8.40145 11.5381C7.79926 11.565 7.60661 11.5714 6.07343 11.5714C4.54025 11.5714 4.34813 11.565 3.74541 11.5381C1.69345 11.445 0.555275 10.3208 0.461638 8.29736C0.434192 7.70325 0.427734 7.51329 0.427734 6.00002C0.427734 4.48675 0.434192 4.29732 0.462176 3.70267C0.556351 1.67763 1.69561 0.555053 3.74594 0.461954C4.34813 0.435047 4.54025 0.428589 6.07343 0.428589C7.60661 0.428589 7.79926 0.435047 8.40199 0.462492C10.4539 0.555591 11.5932 1.68193 11.6852 3.70321C11.7127 4.29732 11.7191 4.48675 11.7191 6.00002C11.7191 7.51329 11.7127 7.70325 11.6847 8.29736ZM6.07343 3.13923C4.47244 3.13923 3.17443 4.42002 3.17443 6.00002C3.17443 7.58002 4.47244 8.86134 6.07343 8.86134C7.67441 8.86134 8.97242 7.58055 8.97242 6.00002C8.97242 4.42002 7.67441 3.13923 6.07343 3.13923ZM9.08705 2.35731C8.71303 2.35731 8.40898 2.65705 8.40898 3.02622C8.40898 3.39539 8.71303 3.6946 9.08705 3.6946C9.4616 3.6946 9.76457 3.39539 9.76457 3.02622C9.76457 2.65705 9.4616 2.35731 9.08705 2.35731ZM6.07343 7.85716C5.03427 7.85716 4.19153 7.02626 4.19153 6.00002C4.19153 4.97431 5.03427 4.14287 6.07343 4.14287C7.11259 4.14287 7.95533 4.97431 7.95533 6.00002C7.95533 7.02626 7.11259 7.85716 6.07343 7.85716Z"/>
</svg>
